<svg xmlns="http://www.w3.org/2000/svg" fill="none" viewBox="0 0 276 102"><defs/><path fill="currentColor" fill-rule="evenodd" d="M51 87a36 36 0 100-72 36 36 0 000 72zM24 57.8v4a1.9 1.9 0 00.7 1.4c.1.2.3.3.5.3h7.9a4.7 4.7 0 004.7-4.6v-2.4a4 4 0 013-3.7 48.2 48.2 0 0120.3 0s2.2.8 2.9 1.7a5 5 0 011 3.1v1.6a4.7 4.7 0 004.7 4.6l7.9.1c.2 0 .4 0 .5-.2a1.9 1.9 0 00.7-1.5v-4-1.7c-.2-1.8-.8-3.6-1.7-5.2-1.2-2-3-3.6-5-4.9 5.2-6.4-1-12.2-5-14.3 2.4 4.6 1.1 8.8-.7 11.8a50 50 0 00-14.9-2 57 57 0 00-11.2.8c-1.7.3-3.4.7-5 1.4-1.9-3-3.2-7.3-.8-12-4 2.2-10.5 8.2-4.5 14.9l-.5.3a20 20 0 00-3.5 3.6c-1.3 2-2 4.5-2 7z" clip-rule="evenodd"/><path fill="currentColor" d="M127.4 57a8 8 0 01-1.4 5 8.2 8.2 0 01-4 2.7c-1.6.6-3.6 1-5.8 1h-10.6V35.5h10c2 0 3.7.3 5.2.8 1.6.6 2.7 1.4 3.6 2.5a6.6 6.6 0 011.3 4.3c0 1.5-.4 2.7-1.2 3.8-.8 1-1.9 1.8-3.2 2.4 1.7.5 3.2 1.4 4.4 2.7a6.9 6.9 0 011.7 5zM115 40.5h-3.3v7.1h3.3c1.4 0 2.5-.3 3.2-1 .8-.6 1.2-1.5 1.2-2.6a3 3 0 00-1.2-2.6c-.7-.6-1.8-1-3.2-1zm-3.3 20.2h4c1.5 0 2.8-.3 3.9-1 1-.8 1.5-1.9 1.5-3.4s-.5-2.6-1.5-3.2c-1-.7-2.4-1-4-1h-3.9v8.6zM134 51.5l-2.1-3.8c1-.6 2.3-1 3.8-1.6a15.1 15.1 0 019.5 0c1.3.5 2.3 1.2 3 2.1a5 5 0 011.2 3.4v14H144V63c-.6 1-1.5 1.8-2.7 2.4-1.2.5-2.5.7-3.8.7-1.3 0-2.4-.2-3.5-.7a6 6 0 01-2.5-2c-.7-1-1-2.2-1-3.5 0-1.9.7-3.4 2-4.5a8.6 8.6 0 015.8-1.7 12.6 12.6 0 015.7 1.2v-2c0-1-.4-1.8-1-2.3a5 5 0 00-3-.8c-1.3 0-2.6.3-3.7.7-1.2.4-2 .8-2.3 1zm2.2 8c0 .8.3 1.5.9 2 .6.5 1.3.7 2.3.7a5 5 0 003.2-1.1c1-.8 1.4-2 1.4-3.4-1.3-.5-2.7-.8-4.2-.8-1.3 0-2.2.2-2.8.7-.6.4-.8 1-.8 1.8zM153.2 55.7c0-2.2.5-4 1.3-5.5a9.1 9.1 0 018.2-4.7c3 0 5.2 1.2 6.8 3.6v-17h5.5v33.5h-5.5v-3.2a7.6 7.6 0 01-6.8 3.6 9.1 9.1 0 01-8.2-4.7 11 11 0 01-1.3-5.6zm5.8 0c0 1.8.5 3.2 1.5 4.2 1.1 1 2.4 1.5 3.8 1.5.8 0 1.6-.2 2.4-.6a5.5 5.5 0 002.8-5c0-1.3-.3-2.3-.8-3.1a5.1 5.1 0 00-2-2 5.3 5.3 0 00-6.1.8c-1 1-1.6 2.5-1.6 4.2zM182.4 55.7c0 1.4.3 2.6.8 3.7a7 7 0 002.4 2.5c1 .6 2.2 1 3.5 1 1.6 0 3-.4 4.3-1.1a6 6 0 002.6-2.6v4.3c-.7.8-1.7 1.4-3 1.9a12 12 0 01-3.9.6 10.2 10.2 0 01-8.9-5c-.9-1.5-1.3-3.3-1.3-5.3s.4-3.7 1.3-5.3a10 10 0 018.9-5c1.3 0 2.6.3 4 .7 1.2.5 2.2 1 2.9 1.9v4.3a6 6 0 00-2.6-2.6c-1.3-.7-2.7-1-4.3-1-1.3 0-2.4.3-3.5.9-1 .6-1.8 1.4-2.4 2.5-.5 1-.8 2.3-.8 3.6zM202.3 50.4l-1.6-2.5a12.3 12.3 0 017.8-2.4c2.2 0 4 .5 5.5 1.5 1.4 1 2.2 2.5 2.2 4.5v14.1h-3.5V63c-.6 1-1.5 1.8-2.8 2.3-1.3.5-2.5.7-3.7.7a8 8 0 01-3.4-.7 6 6 0 01-3.4-5.6c0-2 .7-3.4 2-4.6a8.5 8.5 0 015.7-1.8 10.4 10.4 0 015.6 1.5V52c0-1.3-.4-2.2-1.3-2.7s-2-.7-3.1-.7c-1.5 0-2.8.2-3.8.7l-2.2 1.2zm.6 9.1c0 1.2.3 2 1.1 2.7a5 5 0 003.1.9c1.6 0 3-.5 4-1.4 1-1 1.6-2.2 1.6-3.8v-.7a10 10 0 00-2.4-.9c-.9-.2-1.7-.2-2.6-.2-1.7 0-3 .3-3.7.9a3 3 0 00-1.1 2.5zM222 32.2h3.4v33.4H222V32.2zM231.9 32.2h3.4v33.4h-3.4V32.2zM249.4 66c-1.8 0-3.5-.4-5-1.2a9.3 9.3 0 01-3.2-3.7c-.8-1.5-1.2-3.3-1.2-5.4 0-2 .4-3.8 1.2-5.4a9 9 0 013.5-3.6c1.5-.8 3.2-1.2 5.1-1.2 2.9 0 5.2.9 6.8 2.7a10.5 10.5 0 012.5 8v.4h-15.6a7 7 0 001.9 4.6 6 6 0 004.4 1.6c2.7 0 4.8-1.2 6.2-3.5l2.8 1.7c-2 3.4-5.2 5-9.4 5zm.4-17.5a6 6 0 00-4.1 1.3c-1 1-1.7 2.2-2 3.9h11.7a5.4 5.4 0 00-5.6-5.2zM273.2 49.7c-.4-.4-.8-.6-1.2-.8l-1.4-.2c-1.3 0-2.2.4-2.7 1.4-.4.9-.6 2-.6 3.5v12h-3.5V46h3.5v2.3c.5-.9 1.1-1.5 1.9-2a4 4 0 012.2-.7c.7 0 1.4 0 2 .3.6.1 1.2.5 1.7 1l-1.9 2.9z"/></svg>